<svg width="33" height="33" viewBox="0 0 33 33" fill="none" xmlns="http://www.w3.org/2000/svg">
<path d="M7.34326 25.4053C7.01123 25.4053 6.75667 25.3167 6.57959 25.1396C6.40804 24.9626 6.32227 24.7108 6.32227 24.3843V10.3643C6.32227 10.0378 6.40804 9.78597 6.57959 9.60889C6.75667 9.42627 7.01123 9.33496 7.34326 9.33496H8.91211C9.24414 9.33496 9.49593 9.42627 9.66748 9.60889C9.84456 9.78597 9.93311 10.0378 9.93311 10.3643V24.3843C9.93311 24.7108 9.84456 24.9626 9.66748 25.1396C9.49593 25.3167 9.24414 25.4053 8.91211 25.4053H7.34326ZM11.9253 25.4053C11.5933 25.4053 11.3387 25.3167 11.1616 25.1396C10.9845 24.9626 10.896 24.7108 10.896 24.3843V13.1948C10.896 12.8739 10.9845 12.6248 11.1616 12.4478C11.3387 12.2651 11.5933 12.1738 11.9253 12.1738H15.2871C15.6191 12.1738 15.8709 12.2651 16.0425 12.4478C16.2196 12.6248 16.3081 12.8739 16.3081 13.1948V24.3843C16.3081 24.7108 16.2196 24.9626 16.0425 25.1396C15.8709 25.3167 15.6191 25.4053 15.2871 25.4053H11.9253ZM12.7139 15.1372H14.5151C14.659 15.1372 14.778 15.0874 14.8721 14.9878C14.9717 14.8882 15.0215 14.7664 15.0215 14.6226C15.0215 14.4787 14.9717 14.3597 14.8721 14.2656C14.778 14.166 14.659 14.1162 14.5151 14.1162H12.7139C12.5645 14.1162 12.4399 14.166 12.3403 14.2656C12.2407 14.3597 12.1909 14.4787 12.1909 14.6226C12.1909 14.7664 12.2407 14.8882 12.3403 14.9878C12.4399 15.0874 12.5645 15.1372 12.7139 15.1372ZM12.7139 23.4712H14.5151C14.659 23.4712 14.778 23.4214 14.8721 23.3218C14.9717 23.2222 15.0215 23.1004 15.0215 22.9565C15.0215 22.8127 14.9717 22.6909 14.8721 22.5913C14.778 22.4972 14.659 22.4502 14.5151 22.4502H12.7139C12.5645 22.4502 12.4399 22.4972 12.3403 22.5913C12.2407 22.6909 12.1909 22.8127 12.1909 22.9565C12.1909 23.1004 12.2407 23.2222 12.3403 23.3218C12.4399 23.4214 12.5645 23.4712 12.7139 23.4712ZM18.3003 25.4053C17.9683 25.4053 17.7137 25.3167 17.5366 25.1396C17.3651 24.9626 17.2793 24.7108 17.2793 24.3843V8.06494C17.2793 7.73844 17.3651 7.48665 17.5366 7.30957C17.7137 7.12695 17.9683 7.03564 18.3003 7.03564H20.3506C20.6826 7.03564 20.9344 7.12695 21.106 7.30957C21.283 7.48665 21.3716 7.73844 21.3716 8.06494V24.3843C21.3716 24.7108 21.283 24.9626 21.106 25.1396C20.9344 25.3167 20.6826 25.4053 20.3506 25.4053H18.3003ZM23.9448 25.4468C23.6183 25.491 23.3582 25.4329 23.1646 25.2725C22.9764 25.112 22.863 24.8685 22.8242 24.542L21.2305 10.771C21.1973 10.45 21.2554 10.1927 21.4048 9.99902C21.5597 9.80534 21.8005 9.68636 22.127 9.64209L23.4551 9.45117C23.7871 9.4069 24.0472 9.46501 24.2354 9.62549C24.429 9.78597 24.5452 10.0267 24.584 10.3477L26.1694 24.1187C26.2082 24.4451 26.1501 24.7052 25.9951 24.8989C25.8457 25.0926 25.6077 25.2116 25.2812 25.2559L23.9448 25.4468Z" fill="#E4EBED"/>
</svg>
