<svg width="33" height="33" viewBox="0 0 33 33" fill="none" xmlns="http://www.w3.org/2000/svg">
<path d="M10.6802 24.1104C10.2375 24.1104 9.88883 24.0107 9.63428 23.8115C9.38525 23.6178 9.26074 23.3494 9.26074 23.0063C9.26074 22.4751 9.42122 21.9134 9.74219 21.3213C10.0632 20.7292 10.528 20.1758 11.1367 19.6611C11.7454 19.141 12.4787 18.7204 13.3364 18.3994C14.1997 18.0729 15.1681 17.9097 16.2417 17.9097C17.3208 17.9097 18.2892 18.0729 19.147 18.3994C20.0103 18.7204 20.7435 19.141 21.3467 19.6611C21.9554 20.1758 22.4202 20.7292 22.7412 21.3213C23.0677 21.9134 23.231 22.4751 23.231 23.0063C23.231 23.3494 23.1037 23.6178 22.8491 23.8115C22.6001 24.0107 22.2542 24.1104 21.8115 24.1104H10.6802ZM16.25 16.4238C15.6579 16.4238 15.11 16.2633 14.6064 15.9424C14.1029 15.6159 13.6961 15.1787 13.3862 14.6309C13.0819 14.0775 12.9297 13.4577 12.9297 12.7715C12.9297 12.0964 13.0819 11.4876 13.3862 10.9453C13.6961 10.403 14.1029 9.97412 14.6064 9.65869C15.11 9.34326 15.6579 9.18555 16.25 9.18555C16.8421 9.18555 17.39 9.34049 17.8936 9.65039C18.3971 9.96029 18.8011 10.3864 19.1055 10.9287C19.4154 11.4655 19.5703 12.0742 19.5703 12.7549C19.5703 13.4466 19.4154 14.0692 19.1055 14.6226C18.8011 15.1759 18.3971 15.6159 17.8936 15.9424C17.39 16.2633 16.8421 16.4238 16.25 16.4238Z" fill="#E4EBED"/>
</svg>
