<svg width="33" height="33" viewBox="0 0 33 33" fill="none" xmlns="http://www.w3.org/2000/svg">
<path d="M17.8833 23.189V17.7021C17.8833 17.5085 17.8252 17.3563 17.709 17.2456C17.5983 17.1294 17.4461 17.0713 17.2524 17.0713H14.2393C14.0511 17.0713 13.8962 17.1294 13.7744 17.2456C13.6582 17.3563 13.6001 17.5085 13.6001 17.7021V23.189H17.8833ZM8.42871 22.6909V16.1167L15.252 10.3975C15.584 10.1152 15.916 10.1152 16.248 10.3975L23.0713 16.1167V22.6909C23.0713 23.272 22.9053 23.723 22.5732 24.0439C22.2467 24.3649 21.793 24.5254 21.2119 24.5254H10.2964C9.7098 24.5254 9.25049 24.3649 8.91846 24.0439C8.59196 23.723 8.42871 23.272 8.42871 22.6909ZM5.83887 15.2866C5.83887 15.0708 5.92741 14.891 6.10449 14.7471L14.7539 7.48389C15.0638 7.2238 15.3958 7.09375 15.75 7.09375C16.1097 7.09375 16.4445 7.2238 16.7544 7.48389L25.3955 14.7471C25.5671 14.891 25.6528 15.0791 25.6528 15.3115C25.6528 15.5107 25.5837 15.6685 25.4453 15.7847C25.307 15.8953 25.141 15.9507 24.9473 15.9507C24.8311 15.9507 24.7231 15.923 24.6235 15.8677C24.5295 15.8123 24.4409 15.7515 24.3579 15.6851L16.0488 8.7124C15.9548 8.62939 15.8551 8.58789 15.75 8.58789C15.6504 8.58789 15.5535 8.62939 15.4595 8.7124L7.15039 15.6851C7.06185 15.7515 6.96777 15.8123 6.86816 15.8677C6.77409 15.923 6.66895 15.9507 6.55273 15.9507C6.33138 15.9507 6.15706 15.8843 6.02979 15.7515C5.90251 15.6131 5.83887 15.4582 5.83887 15.2866ZM20.9878 11.543V9.46777C20.9878 9.28516 21.0431 9.14128 21.1538 9.03613C21.2645 8.92546 21.4084 8.87012 21.5854 8.87012H22.4736C22.6562 8.87012 22.8001 8.92546 22.9053 9.03613C23.016 9.14128 23.0713 9.28516 23.0713 9.46777V13.3027L20.9878 11.543Z" fill="#E4EBED"/>
</svg>
