<svg width="33" height="33" viewBox="0 0 33 33" fill="none" xmlns="http://www.w3.org/2000/svg">
<path d="M11.2114 24.1602C10.3426 24.1602 9.68962 23.9443 9.25244 23.5127C8.8208 23.0866 8.60498 22.4447 8.60498 21.5869V11.4517C8.60498 10.5939 8.8208 9.95199 9.25244 9.52588C9.68962 9.09424 10.3426 8.87842 11.2114 8.87842H21.2803C22.1491 8.87842 22.7993 9.09424 23.231 9.52588C23.6681 9.95199 23.8867 10.5939 23.8867 11.4517V21.5869C23.8867 22.4447 23.6681 23.0866 23.231 23.5127C22.7993 23.9443 22.1491 24.1602 21.2803 24.1602H11.2114ZM14.6729 19.8521L19.5537 16.98C19.7308 16.8693 19.8166 16.7144 19.811 16.5151C19.811 16.3159 19.7253 16.1637 19.5537 16.0586L14.6729 13.1699C14.4902 13.0648 14.3021 13.0482 14.1084 13.1201C13.9147 13.1921 13.8179 13.3304 13.8179 13.5352V19.4868C13.8179 19.6916 13.9092 19.8354 14.0918 19.9185C14.2799 19.9959 14.4736 19.9738 14.6729 19.8521Z" fill="#E4EBED"/>
</svg>
